<?xml version="1.0" encoding="utf-8"?>
<!-- Generator: Adobe Illustrator 21.0.2, SVG Export Plug-In . SVG Version: 6.00 Build 0)  -->
<svg version="1.1" id="Capa_1" xmlns="http://www.w3.org/2000/svg" xmlns:xlink="http://www.w3.org/1999/xlink" x="0px" y="0px"
	 viewBox="0 0 181.4 181.4" style="enable-background:new 0 0 181.4 181.4;" xml:space="preserve">
<style type="text/css">
	.st0{fill:#1CC1DE;}
</style>
<g>
	<g>
		<g>
			<path class="st0" d="M99.5,76.6v-6.4h-5.9v5.9h-5.9v-5.9h-5.9v5.9h-5.9v29.3h5.9v5.9h5.9v-5.9h5.9v5.9h5.9v-6.4
				c3.4-1.2,5.9-4.4,5.9-8.2c0-2.2-0.8-4.3-2.2-5.9c1.4-1.6,2.2-3.6,2.2-5.9C105.3,81,102.9,77.8,99.5,76.6z M96.6,99.5H81.9v-5.9
				h14.6c1.6,0,2.9,1.3,2.9,2.9C99.5,98.2,98.2,99.5,96.6,99.5z M96.6,87.8H81.9v-5.9h14.6c1.6,0,2.9,1.3,2.9,2.9
				S98.2,87.8,96.6,87.8z"/>
			<path class="st0" d="M90.7,64.4c6.1,0,12,2.1,16.7,5.9l3.7-4.5c-5.7-4.7-13-7.3-20.4-7.3C73,58.5,58.5,73,58.5,90.7
				c0,7.4,2.6,14.6,7.3,20.4l4.5-3.7c-3.8-4.7-5.9-10.6-5.9-16.7C64.4,76.2,76.2,64.4,90.7,64.4z"/>
			<path class="st0" d="M111.1,74c3.8,4.7,5.9,10.6,5.9,16.7c0,14.5-11.8,26.3-26.3,26.3c-6.1,0-12-2.1-16.7-5.9l-3.7,4.5
				c5.7,4.7,13,7.3,20.4,7.3c17.7,0,32.2-14.4,32.2-32.2c0-7.4-2.6-14.6-7.3-20.4L111.1,74z"/>
			<path class="st0" d="M170.3,76.1l-10.2-36.8c2.3-1.6,3.7-4.2,3.7-7.2c0-4.8-3.9-8.8-8.8-8.8c-4.4,0-8,3.2-8.6,7.4l-16,2.9
				c-1.5-2.6-4.3-4.4-7.6-4.4c-0.1,0-0.2,0-0.3,0l-5.6-14c1.8-1.6,3-3.9,3-6.6c0-4.8-3.9-8.8-8.8-8.8c-4.2,0-7.7,3-8.6,6.9
				l-47.9,6.2C53,8.9,48.8,5.9,43.9,5.9c-6.5,0-11.7,5.2-11.7,11.7c0,1.6,0.3,3.1,0.9,4.5L13.6,36.6c-1.4-0.9-3.1-1.5-4.9-1.5
				c-4.8,0-8.8,3.9-8.8,8.8c0,3.8,2.5,7,5.9,8.2v62.5c-3.4,1.2-5.9,4.4-5.9,8.2c0,4.8,3.9,8.8,8.8,8.8c2.7,0,5-1.2,6.6-3.1l19.8,7.6
				c-0.1,0.4-0.1,0.9-0.1,1.3c0,6.5,5.2,11.7,11.7,11.7c2,0,3.8-0.5,5.5-1.4l19,20.7c-0.7,1.2-1.1,2.6-1.1,4.1
				c0,4.8,3.9,8.8,8.8,8.8c3.8,0,7-2.5,8.2-5.9h24.5c1.2,3.4,4.4,5.9,8.2,5.9c4.8,0,8.8-3.9,8.8-8.8c0-1.5-0.4-2.9-1.1-4.1l21-22.9
				c1.1,0.5,2.2,0.7,3.4,0.7c4.8,0,8.8-3.9,8.8-8.8c0-2.7-1.3-5.2-3.3-6.8l11.1-31.4c0.3,0,0.7,0.1,1,0.1c6.5,0,11.7-5.2,11.7-11.7
				C181.4,81.5,176.5,76.5,170.3,76.1z M155.1,29.3c1.6,0,2.9,1.3,2.9,2.9c0,1.6-1.3,2.9-2.9,2.9s-2.9-1.3-2.9-2.9
				C152.2,30.6,153.5,29.3,155.1,29.3z M131.5,39.4l16-2.9c1.4,2.5,4,4.2,7,4.4l10.1,36.4c-0.2,0.1-0.3,0.2-0.5,0.3L130.7,42
				C131.1,41.2,131.4,40.4,131.5,39.4z M159.8,81.6c-0.7,1.1-1.3,2.4-1.6,3.8l-23.9,1c-1.3-13-8.3-24.3-18.5-31.5l5.1-8.2
				c0.6,0.1,1.2,0.2,1.9,0.2c1.3,0,2.4-0.3,3.5-0.8L159.8,81.6z M128.7,90.7c0,21-17.1,38-38,38s-38-17.1-38-38s17.1-38,38-38
				S128.7,69.7,128.7,90.7z M122.9,35.1c1.6,0,2.9,1.3,2.9,2.9c0,1.6-1.3,2.9-2.9,2.9S120,39.7,120,38
				C120,36.4,121.3,35.1,122.9,35.1z M111.2,5.9c1.6,0,2.9,1.3,2.9,2.9s-1.3,2.9-2.9,2.9s-2.9-1.3-2.9-2.9S109.6,5.9,111.2,5.9z
				 M55.5,19l48-6.3c1.5,2.8,4.4,4.8,7.8,4.8c0.1,0,0.2,0,0.3,0l5.6,14c-1.8,1.6-3,3.9-3,6.6c0,2.1,0.7,3.9,1.9,5.4l-5.2,8.3
				c-6-3.1-12.9-4.9-20.2-4.9c-7.7,0-14.9,2-21.1,5.4L52.4,25.5C54.1,23.7,55.1,21.5,55.5,19z M64.7,55.5c-4.2,3.1-7.9,7-10.8,11.4
				l-7.2-4c0.1-0.5,0.1-0.9,0.1-1.4c0-3.4-2-6.3-4.8-7.8l3.3-24.6c0.8-0.1,1.5-0.3,2.2-0.5L64.7,55.5z M43.9,11.7
				c3.2,0,5.9,2.6,5.9,5.9s-2.6,5.9-5.9,5.9S38,20.8,38,17.6S40.7,11.7,43.9,11.7z M41,61.4c0,1.6-1.3,2.9-2.9,2.9s-2.9-1.3-2.9-2.9
				s1.3-2.9,2.9-2.9S41,59.8,41,61.4z M36.6,26.7c0.9,0.7,1.8,1.3,2.9,1.7l-3.3,24.5c-1.4,0.3-2.7,1-3.7,1.8l-15.1-9.1
				c0.1-0.6,0.2-1.1,0.2-1.7c0-0.9-0.2-1.8-0.4-2.6L36.6,26.7z M8.8,41c1.6,0,2.9,1.3,2.9,2.9c0,1.6-1.3,2.9-2.9,2.9
				s-2.9-1.3-2.9-2.9C5.9,42.3,7.2,41,8.8,41z M8.8,125.8c-1.6,0-2.9-1.3-2.9-2.9s1.3-2.9,2.9-2.9s2.9,1.3,2.9,2.9
				S10.4,125.8,8.8,125.8z M11.7,52.1c1-0.3,1.8-0.9,2.6-1.5l15.1,9.1c-0.1,0.6-0.2,1.1-0.2,1.7c0,2.4,1,4.6,2.6,6.2l-20.1,42.3
				V52.1z M37.3,130.7l-19.8-7.6c0-0.1,0-0.2,0-0.2c0-2.4-1-4.6-2.6-6.2l22.2-46.6c0.3,0,0.6,0.1,0.9,0.1c2.2,0,4.2-0.9,5.8-2.2
				l7.2,4c-2.7,5.7-4.2,12-4.2,18.7c0,11.6,4.5,22.1,11.9,29.9l-6.3,6.7c-1.7-0.9-3.5-1.5-5.6-1.5C42.9,125.8,39.4,127.8,37.3,130.7
				z M46.8,143.4c-3.2,0-5.9-2.6-5.9-5.9c0-3.2,2.6-5.9,5.9-5.9s5.9,2.6,5.9,5.9C52.7,140.8,50,143.4,46.8,143.4z M79,175.6
				c-1.6,0-2.9-1.3-2.9-2.9s1.3-2.9,2.9-2.9s2.9,1.3,2.9,2.9S80.6,175.6,79,175.6z M111.7,169.7H87.2c-1.2-3.4-4.4-5.9-8.2-5.9
				c-1.2,0-2.4,0.3-3.4,0.7l-19-20.7c1.2-1.8,1.9-4,1.9-6.4c0-2.3-0.7-4.4-1.8-6.2l6.2-6.6c7.6,6.2,17.3,10,27.8,10
				c4,0,7.9-0.6,11.5-1.6l11.6,33.4C112.9,167.3,112.2,168.5,111.7,169.7z M120,175.6c-1.6,0-2.9-1.3-2.9-2.9s1.3-2.9,2.9-2.9
				s2.9,1.3,2.9,2.9S121.6,175.6,120,175.6z M123.4,164.6c-1.1-0.5-2.2-0.7-3.4-0.7c-0.3,0-0.5,0.1-0.8,0.1l-11.4-32.8
				c6.5-2.7,12.1-7,16.6-12.3l19.5,15.8c-0.3,0.9-0.5,1.9-0.5,2.9c0,1.5,0.4,2.9,1.1,4.1L123.4,164.6z M152.2,140.5
				c-1.6,0-2.9-1.3-2.9-2.9c0-1.6,1.3-2.9,2.9-2.9s2.9,1.3,2.9,2.9C155.1,139.1,153.8,140.5,152.2,140.5z M152.1,128.7
				c-1.7,0-3.2,0.5-4.6,1.3l-19.8-16c4-6.4,6.5-13.9,6.7-21.9l24-1c0.8,2.6,2.4,4.8,4.6,6.3L152.1,128.7z M169.7,93.6
				c-3.2,0-5.9-2.6-5.9-5.9c0-3.2,2.6-5.9,5.9-5.9s5.9,2.6,5.9,5.9C175.6,91,172.9,93.6,169.7,93.6z"/>
		</g>
	</g>
</g>
</svg>
