<?xml version="1.0" encoding="utf-8"?>
<!-- Generator: Adobe Illustrator 21.0.2, SVG Export Plug-In . SVG Version: 6.00 Build 0)  -->
<svg version="1.1" id="Capa_1" xmlns="http://www.w3.org/2000/svg" xmlns:xlink="http://www.w3.org/1999/xlink" x="0px" y="0px"
	 viewBox="0 0 181.4 181.4" style="enable-background:new 0 0 181.4 181.4;" xml:space="preserve">
<style type="text/css">
	.st0{fill:#1CC1DE;}
</style>
<g>
	<g>
		<path class="st0" d="M135.4,82.8c0.1-0.7,0.2-1.4,0.2-2.1c0-4.3-2.8-8-6.9-9.2c-0.8-3.6-3.5-6.4-7-7.5c-3.5-1-7.3-0.1-9.9,2.5
			c-2.6-2.6-6.4-3.5-9.9-2.5c-3.5,1-6.2,3.9-7,7.5c-4.1,1.2-6.9,5-6.9,9.2c0,0.7,0.1,1.4,0.2,2.1C84,86.5,83.4,92.9,87,97.3
			c-1,2.5-1,5.3,0.1,7.8c1.1,2.5,3.1,4.4,5.7,5.4c0.1,0.2,0.2,0.5,0.3,0.7c0,0.1,0.1,0.1,0.1,0.2c0.1,0.2,0.2,0.4,0.3,0.5
			c0,0,0.1,0.3,0.2,0.3c0.2,0.4,0.4,0.7,0.6,1l0.4,0.5c0.6,0.7,1.2,1.2,1.9,1.8l0.5,0.3c0.7,0.5,1.6,0.9,2.4,1.2
			c0.2,0.1,0.4,0.1,0.7,0.2l0.4,0.1c0.4,0.1,0.7,0.2,1.1,0.2c0.1,0,0.3,0,0.4,0.1c0.5,0.1,0.9,0.1,1.3,0.1c3.1,0,6.2-1.3,8.3-3.6
			c2.2,2.3,5.2,3.6,8.3,3.6c0.4,0,0.8,0,1.2-0.1c0.2,0,0.4,0,0.5-0.1c0.4,0,0.7-0.1,1.1-0.2l0.5-0.1c0.2-0.1,0.4-0.1,0.6-0.2
			c0.4-0.1,0.7-0.3,1-0.4c0.5-0.2,1-0.5,1.4-0.8l0.4-0.3c0.7-0.5,1.4-1.1,1.9-1.8l0.4-0.5c0.2-0.4,0.5-0.7,0.7-1.1
			c0.1-0.2,0.2-0.5,0.4-0.7c0-0.1,0.1-0.1,0.1-0.2c0.1-0.2,0.2-0.4,0.3-0.6l0-0.1c2.5-1,4.6-2.9,5.7-5.4c1.1-2.5,1.2-5.3,0.1-7.8
			C140.1,92.9,139.6,86.5,135.4,82.8z M131,94.3c-0.7,0.5-1.1,1.2-1.2,2s0.1,1.6,0.6,2.3c0.6,0.7,0.8,1.6,0.8,2.5c0,2-1.4,3.7-3.4,4
			c-1.3,0.4-2.4,1.5-2.6,2.9c0,0-0.1,0.4-0.1,0.4c0,0-0.1,0.3-0.1,0.3c-0.1,0.1-0.1,0.2-0.1,0.3l-0.2,0.3c-0.1,0.1-0.2,0.3-0.3,0.4
			l-0.2,0.2c-0.3,0.4-0.7,0.7-1.1,1c-0.2,0.1-0.5,0.3-0.7,0.4c-0.1,0.1-0.2,0.1-0.4,0.2l-0.6,0.2c-0.2,0.1-0.5,0.1-0.7,0.1
			c-0.2,0-0.4,0-0.6,0c-2.9,0-5.3-2.4-5.3-5.3c0-1.7-1.3-3-3-3c-1.7,0-3,1.3-3,3c0,2.9-2.4,5.3-5.3,5.3c-0.3,0-0.5,0-0.8-0.1
			c-0.2,0-0.5-0.1-0.7-0.1l-0.3-0.1c-0.2-0.1-0.3-0.1-0.5-0.2c-0.3-0.1-0.6-0.3-0.9-0.5c-0.3-0.2-0.6-0.5-0.8-0.8l-0.2-0.3
			c-0.1-0.1-0.2-0.2-0.3-0.4c0,0-0.2-0.3-0.2-0.3c0-0.1-0.1-0.4-0.2-0.5c0,0-0.1-0.3-0.1-0.3c0-0.1-0.1-0.5-0.1-0.6
			c-0.2-1.3-1.2-2.3-2.5-2.4c-1.9-0.3-3.3-2-3.3-4c0-0.9,0.3-1.8,0.8-2.5c0.5-0.6,0.7-1.5,0.6-2.3c-0.1-0.8-0.6-1.6-1.2-2
			c-1.3-0.9-2-2.4-1.9-4c0.1-1.6,1.1-3,2.5-3.6c0.7-0.4,1.3-1,1.6-1.8c0.2-0.8,0.1-1.7-0.2-2.4C94.2,82,94,81.3,94,80.7
			c0-1,0.4-1.9,1.1-2.6c0.7-0.7,1.6-1.1,2.6-1.1c0.8,0,1.6-0.4,2.2-1.1c0.6-0.6,0.8-1.5,0.8-2.4c0-1.4,0.8-2.8,2-3.5
			c1.3-0.7,2.8-0.7,4.1,0c1.3,0.7,2,2.1,2,3.5c0,1.7,1.3,3,3,3c1.7,0,3-1.3,3-3c0-2.2,1.8-4.1,4.1-4.1c1.1,0,2.2,0.5,2.9,1.3
			c0.8,0.8,1.2,1.9,1.1,3c0,0.8,0.2,1.7,0.8,2.3c0.6,0.6,1.4,1,2.2,1c2,0,3.6,1.6,3.6,3.6c0,0.6-0.1,1.2-0.5,1.8
			c-0.4,0.7-0.5,1.6-0.2,2.4c0.2,0.8,0.8,1.4,1.6,1.8c1.4,0.7,2.4,2.1,2.5,3.6C133,91.9,132.3,93.4,131,94.3z"/>
	</g>
</g>
<g>
	<g>
		<path class="st0" d="M51.6,147.9H27.5c-1.7,0-3,1.3-3,3s1.3,3,3,3h24.1c1.7,0,3-1.3,3-3S53.2,147.9,51.6,147.9z"/>
	</g>
</g>
<g>
	<g>
		<path class="st0" d="M179.8,60.7L118,17.5l-0.5-0.3c-1-0.7-2.1-1.2-3.2-1.5c-0.3-0.1-0.6-0.2-1-0.2c-0.1,0-0.2,0-0.3,0
			c-1.3-0.1-2.5-0.1-3.8,0.2c-0.3,0.1-0.6,0.1-0.8,0.2c-1,0.4-2,0.9-2.8,1.6L76.1,38.2c-2.3-2.9-5.8-4.7-9.5-4.7H12.4
			c-6.6,0-12,5.4-12,12V154c0,6.6,5.4,12,12,12H163c0.8,0,1.6-0.3,2.1-0.9c0.6-0.6,0.9-1.3,0.9-2.1V81.2c0.5,0.3,1,0.5,1.6,0.5
			c0.2,0,0.4,0,0.6-0.1c0.8-0.1,1.5-0.6,1.9-1.3l10.4-15.5C181.5,63.5,181.1,61.7,179.8,60.7z M56,39.5L54,44
			c-0.3,0.8-1.1,1.4-1.9,1.5H27c-0.9-0.1-1.7-0.7-1.9-1.5l-2-4.5H56z M72.7,154c0,3.3-2.7,6-6,6H12.4c-3.3,0-6-2.7-6-6V45.5h0
			c0-3.3,2.7-6,6-6h4.1l3,6.9c1.2,3,4.2,5,7.5,5.2h25.1c3.3-0.1,6.2-2.1,7.5-5.2l3-6.9h4.1c3.3,0,6,2.7,6,6L72.7,154L72.7,154z
			 M99.8,160v-30.1h24.1V160L99.8,160L99.8,160z M160,160h-30.1v-30.1c0-3.3-2.7-6-6-6H99.8c-3.3,0-6,2.7-6,6V160H77
			c1.1-1.9,1.7-4,1.7-6.1V66.7l33.1-22.9L160,77.1V160z M166.8,74.5l-53.3-36.9c-1-0.7-2.4-0.7-3.4,0L78.6,59.4V45.5
			c0-0.6-0.1-1.1-0.2-1.7l30.7-21.5c0.4-0.3,0.8-0.5,1.2-0.7c0.2,0,0.4-0.1,0.5-0.1c0.5-0.1,1-0.1,1.4-0.1c0,0,0.1,0,0.1,0l0.4,0.1
			c0.4,0.1,0.8,0.3,1.2,0.6L173.9,64L166.8,74.5z"/>
	</g>
</g>
<g>
	<g>
		<path class="st0" d="M40.6,118.1c-1.1-0.5-2.4-0.2-3.2,0.6c-0.6,0.6-0.8,1.3-0.9,2.2c0,1.7,1.3,3,3,3s3-1.3,3-3
			C42.5,119.6,41.8,118.5,40.6,118.1z"/>
	</g>
</g>
<g>
	<g>
		<path class="st0" d="M59.4,100.3c-5.7-4.3-12.7-6.6-19.9-6.6c-7.2,0-14.2,2.3-19.9,6.6c-0.8,0.6-1.3,1.7-1.2,2.8
			c0.1,1.1,0.8,2,1.8,2.4c1,0.4,2.1,0.3,3-0.4c9.6-7.2,22.9-7.2,32.5,0c1.3,1,3.2,0.7,4.2-0.6C61,103.3,60.7,101.4,59.4,100.3z"/>
	</g>
</g>
<g>
	<g>
		<path class="st0" d="M65.5,91.4c-14.9-13-37.2-13-52.1,0c-1.3,1.1-1.4,3-0.3,4.2c1.1,1.3,3,1.4,4.3,0.3C30,84.9,49,84.9,61.6,96
			c1.3,1.1,3.1,1,4.2-0.3C67,94.4,66.8,92.5,65.5,91.4z"/>
	</g>
</g>
<g>
	<g>
		<path class="st0" d="M50.4,109.4c-6.5-4.7-15.3-4.7-21.7,0c-1.3,1-1.6,2.9-0.6,4.2c1,1.3,2.9,1.6,4.2,0.6c4.3-3.1,10.1-3.1,14.4,0
			c0.5,0.4,1.2,0.6,1.8,0.6c1.3,0,2.4-0.8,2.9-2C51.8,111.5,51.4,110.2,50.4,109.4z"/>
	</g>
</g>
</svg>
