<?xml version="1.0" encoding="utf-8"?>
<!-- Generator: Adobe Illustrator 21.0.2, SVG Export Plug-In . SVG Version: 6.00 Build 0)  -->
<svg version="1.1" id="Layer_1" xmlns="http://www.w3.org/2000/svg" xmlns:xlink="http://www.w3.org/1999/xlink" x="0px" y="0px"
	 viewBox="0 0 181.4 181.4" style="enable-background:new 0 0 181.4 181.4;" xml:space="preserve">
<style type="text/css">
	.st0{fill:#1CC1DE;}
</style>
<g>
	<path class="st0" d="M175.4,0.1H6.2c-3.3,0-6,2.7-6,6v169.2c0,3.3,2.7,6,6,6h169.2c3.3,0,6-2.7,6-6V6.1
		C181.4,2.8,178.7,0.1,175.4,0.1z M6.2,6.1h169.2v12.1H6.2V6.1z M6.2,175.3v-151h169.2l0,151L6.2,175.3L6.2,175.3z"/>
	<path class="st0" d="M33.4,9.1H15.3c-1.7,0-3,1.4-3,3s1.4,3,3,3h18.1c1.7,0,3-1.4,3-3S35.1,9.1,33.4,9.1z"/>
	<path class="st0" d="M51.5,9.1h-6c-1.7,0-3,1.4-3,3s1.4,3,3,3h6c1.7,0,3-1.4,3-3S53.2,9.1,51.5,9.1z"/>
	<path class="st0" d="M69.6,9.1h-6c-1.7,0-3,1.4-3,3s1.4,3,3,3h6c1.7,0,3-1.4,3-3S71.3,9.1,69.6,9.1z"/>
	<path class="st0" d="M87.8,9.1h-6c-1.7,0-3,1.4-3,3s1.4,3,3,3h6c1.7,0,3-1.4,3-3S89.4,9.1,87.8,9.1z"/>
	<path class="st0" d="M105.9,9.1h-6c-1.7,0-3,1.4-3,3s1.4,3,3,3h6c1.7,0,3-1.4,3-3S107.6,9.1,105.9,9.1z"/>
	<path class="st0" d="M169.3,9.1h-3c-1.7,0-3,1.4-3,3s1.4,3,3,3h3c1.7,0,3-1.4,3-3S171,9.1,169.3,9.1z"/>
	<path class="st0" d="M160.3,117.9h-9.1V99.8c0-5-4.1-9.1-9.1-9.1H93.8V75.6h9.1c5,0,9.1-4.1,9.1-9.1V48.4c0-5-4.1-9.1-9.1-9.1H78.7
		c-5,0-9.1,4.1-9.1,9.1v18.1c0,5,4.1,9.1,9.1,9.1h9.1v15.1H39.4c-5,0-9.1,4.1-9.1,9.1v18.1h-9.1c-5,0-9.1,4.1-9.1,9.1v18.1
		c0,5,4.1,9.1,9.1,9.1h24.2c5,0,9.1-4.1,9.1-9.1V127c0-5-4.1-9.1-9.1-9.1h-9.1V99.8c0-1.7,1.4-3,3-3h48.3v21.1h-9.1
		c-5,0-9.1,4.1-9.1,9.1v18.1c0,5,4.1,9.1,9.1,9.1h24.2c5,0,9.1-4.1,9.1-9.1V127c0-5-4.1-9.1-9.1-9.1h-9.1V96.8h48.3c1.7,0,3,1.4,3,3
		v18.1h-9.1c-5,0-9.1,4.1-9.1,9.1v18.1c0,5,4.1,9.1,9.1,9.1h24.2c5,0,9.1-4.1,9.1-9.1V127C169.3,122,165.3,117.9,160.3,117.9z
		 M45.5,123.9c1.7,0,3,1.4,3,3v18.1c0,1.7-1.4,3-3,3H21.3c-1.7,0-3-1.4-3-3V127c0-1.7,1.4-3,3-3h9.1v9.1c0,1.7,1.4,3,3,3
		c1.7,0,3-1.4,3-3v-9.1H45.5z M102.9,123.9c1.7,0,3,1.4,3,3v18.1c0,1.7-1.4,3-3,3H78.7c-1.7,0-3-1.4-3-3V127c0-1.7,1.4-3,3-3h9.1
		v9.1c0,1.7,1.4,3,3,3s3-1.4,3-3v-9.1H102.9z M90.8,57.5c-1.7,0-3,1.4-3,3v9.1h-9.1c-1.7,0-3-1.4-3-3V48.4c0-1.7,1.4-3,3-3h24.2
		c1.7,0,3,1.4,3,3v18.1c0,1.7-1.4,3-3,3h-9.1v-9.1C93.8,58.8,92.5,57.5,90.8,57.5z M163.3,145.1c0,1.7-1.4,3-3,3h-24.2
		c-1.7,0-3-1.4-3-3V127c0-1.7,1.4-3,3-3h9.1v9.1c0,1.7,1.4,3,3,3s3-1.4,3-3v-9.1h9.1c1.7,0,3,1.4,3,3L163.3,145.1L163.3,145.1z"/>
</g>
</svg>
