<?xml version="1.0" encoding="utf-8"?>
<!-- Generator: Adobe Illustrator 21.0.2, SVG Export Plug-In . SVG Version: 6.00 Build 0)  -->
<svg version="1.1" id="Layer_1" xmlns="http://www.w3.org/2000/svg" xmlns:xlink="http://www.w3.org/1999/xlink" x="0px" y="0px"
	 viewBox="0 0 181.4 181.4" style="enable-background:new 0 0 181.4 181.4;" xml:space="preserve">
<style type="text/css">
	.st0{fill:#1CC1DE;}
</style>
<g transform="translate(-1)">
	<g>
		<g>
			<path class="st0" d="M180,22.2c0.1-5-3.8-9.1-8.7-9.3h-45.8c-0.9-0.7-1.8-1.5-2.8-2.1c-1.2-0.8-2.7-0.7-3.7,0.3l-5.8,5.8
				c-2.9-1.6-6-2.9-9.2-3.8V4.9c0-1.4-1-2.6-2.4-2.9c-6-1.1-12.1-1.1-18.1,0c-1.4,0.2-2.4,1.5-2.4,2.9v8.2c-3.2,0.9-6.3,2.2-9.2,3.8
				l-5.8-5.8c-1-1-2.6-1.1-3.7-0.3c-1,0.7-1.9,1.4-2.8,2.1H13.9c-5,0.2-8.9,4.3-8.7,9.3v121.3c-0.1,5,3.8,9.1,8.7,9.3h56.4l-6,17.5
				h-3.7c-1.6,0-2.9,1.3-2.9,2.9c0,1.6,1.3,2.9,2.9,2.9h64.1c1.6,0,2.9-1.3,2.9-2.9c0-1.6-1.3-2.9-2.9-2.9h-3.7l-6-17.5h56.4
				c5-0.2,8.9-4.3,8.7-9.3L180,22.2L180,22.2z M63.8,17l5.6,5.6c1,1,2.5,1.1,3.6,0.4c3.5-2.3,7.5-3.9,11.6-4.8
				c1.3-0.3,2.3-1.5,2.3-2.8v-8c3.7-0.5,7.5-0.5,11.3,0v8c0,1.4,1,2.6,2.3,2.8c4.1,0.9,8,2.5,11.6,4.8c1.2,0.7,2.7,0.6,3.6-0.4
				l5.6-5.6c3,2.3,5.6,5,8,8l-5.6,5.6c-1,1-1.1,2.5-0.4,3.6c2.3,3.5,3.9,7.5,4.8,11.6c0.3,1.3,1.5,2.3,2.8,2.3h7.9
				c0.5,3.7,0.5,7.5,0,11.3h-7.9c-1.4,0-2.6,1-2.8,2.3c-0.9,4.1-2.5,8-4.8,11.6c-0.7,1.2-0.6,2.7,0.4,3.6l5.6,5.6c-2.3,3-5,5.6-8,8
				l-5.6-5.6c-1-1-2.5-1.1-3.6-0.4c-3.5,2.3-7.5,3.9-11.6,4.8c-1.3,0.3-2.3,1.5-2.3,2.8v8c-3.7,0.5-7.5,0.5-11.3,0v-8
				c0-1.4-1-2.6-2.3-2.8c-4.1-0.9-8-2.5-11.6-4.8c-1.2-0.7-2.7-0.6-3.6,0.4l-5.6,5.6c-3-2.3-5.6-5-8-8l5.6-5.6c1-1,1.1-2.5,0.4-3.6
				c-2.3-3.5-3.9-7.5-4.8-11.6c-0.3-1.3-1.5-2.3-2.8-2.3h-7.9c-0.5-3.7-0.5-7.5,0-11.3h7.9c1.4,0,2.6-1,2.8-2.3
				c0.9-4.1,2.5-8,4.8-11.6c0.7-1.2,0.6-2.7-0.4-3.6l-5.6-5.6C58.2,21.9,60.9,19.3,63.8,17z M70.4,170.2l6-17.5h32.4l6,17.5H70.4z
				 M171.3,146.9H13.9c-1.7-0.2-3-1.7-2.9-3.5v-14h163.2v14C174.3,145.2,173,146.7,171.3,146.9z M174.2,22.2v101.5H11V22.2
				c-0.1-1.8,1.2-3.3,2.9-3.5h39.6c-1.4,1.5-2.7,3.2-3.9,4.8c-0.8,1.2-0.7,2.7,0.3,3.7l5.8,5.8c-1.6,2.9-2.9,6-3.8,9.2h-8.2
				c-1.4,0-2.6,1-2.9,2.4c-1.1,6-1.1,12.1,0,18.1c0.2,1.4,1.5,2.4,2.9,2.4H52c0.9,3.2,2.2,6.3,3.8,9.2L50,80.1c-1,1-1.1,2.6-0.3,3.7
				c3.5,5,7.8,9.3,12.8,12.8c1.2,0.8,2.7,0.7,3.7-0.3l5.8-5.8c2.9,1.6,6,2.9,9.2,3.8v8.2c0,1.4,1,2.6,2.4,2.9c6,1.1,12.1,1.1,18.1,0
				c1.4-0.2,2.4-1.5,2.4-2.9v-8.2c3.2-0.9,6.3-2.2,9.2-3.8l5.8,5.8c1,1,2.6,1.1,3.7,0.3c5-3.5,9.3-7.8,12.8-12.8
				c0.8-1.2,0.7-2.7-0.3-3.7l-5.8-5.8c1.6-2.9,2.9-6,3.8-9.2h8.2c1.4,0,2.6-1,2.9-2.4c1.1-6,1.1-12.1,0-18.1
				c-0.2-1.4-1.5-2.4-2.9-2.4h-8.2c-0.9-3.2-2.2-6.3-3.8-9.2l5.8-5.8c1-1,1.1-2.6,0.3-3.7c-1.2-1.7-2.5-3.3-3.9-4.8h39.6
				C173,18.9,174.3,20.4,174.2,22.2z"/>
			<path class="st0" d="M46,101.8h-2.8c-0.2-0.8-0.6-1.6-1-2.3l2-2c1.1-1.1,1.1-3,0-4.1c-1.1-1.1-3-1.1-4.1,0l-2,2
				c-0.7-0.4-1.5-0.7-2.3-1v-2.8c0-1.6-1.3-2.9-2.9-2.9c-1.6,0-2.9,1.3-2.9,2.9v2.8c-0.8,0.2-1.6,0.6-2.3,1l-2-2
				c-0.7-0.7-1.8-1-2.8-0.8s-1.8,1.1-2.1,2.1c-0.3,1,0,2.1,0.8,2.8l2,2c-0.4,0.7-0.7,1.5-1,2.3h-2.8c-1.6,0-2.9,1.3-2.9,2.9
				s1.3,2.9,2.9,2.9h2.8c0.2,0.8,0.6,1.6,1,2.3l-2,2c-0.7,0.7-1,1.8-0.8,2.8c0.3,1,1.1,1.8,2.1,2.1c1,0.3,2.1,0,2.8-0.8l2-2
				c0.7,0.4,1.5,0.7,2.3,1v2.8c0,1.6,1.3,2.9,2.9,2.9c1.6,0,2.9-1.3,2.9-2.9V115c0.8-0.2,1.6-0.6,2.3-1l2,2c1.1,1.1,3,1.1,4.1,0
				c1.1-1.1,1.1-3,0-4.1l-2-2c0.4-0.7,0.7-1.5,1-2.3H46c1.6,0,2.9-1.3,2.9-2.9S47.6,101.8,46,101.8z M32.8,109.6c-2.7,0-5-2.2-5-5
				s2.2-5,5-5c2.7,0,5,2.2,5,5C37.8,107.4,35.6,109.6,32.8,109.6z"/>
			<path class="st0" d="M165.4,98.8h-2.8c-0.2-0.8-0.6-1.6-1-2.3l2-2c0.7-0.7,1-1.8,0.8-2.8c-0.3-1-1.1-1.8-2.1-2.1
				c-1-0.3-2.1,0-2.8,0.8l-2,2c-0.7-0.4-1.5-0.7-2.3-1v-2.8c0-1.6-1.3-2.9-2.9-2.9s-2.9,1.3-2.9,2.9v2.8c-0.8,0.2-1.6,0.6-2.3,1
				l-2-2c-0.7-0.7-1.8-1-2.8-0.8c-1,0.3-1.8,1.1-2.1,2.1s0,2.1,0.8,2.8l2,2c-0.4,0.7-0.7,1.5-1,2.3h-2.8c-1.6,0-2.9,1.3-2.9,2.9
				c0,1.6,1.3,2.9,2.9,2.9h2.8c0.2,0.8,0.6,1.6,1,2.3l-2,2c-0.7,0.7-1,1.8-0.8,2.8c0.3,1,1.1,1.8,2.1,2.1c1,0.3,2.1,0,2.8-0.8l2-2
				c0.7,0.4,1.5,0.7,2.3,1v2.8c0,1.6,1.3,2.9,2.9,2.9c1.6,0,2.9-1.3,2.9-2.9v-2.8c0.8-0.2,1.6-0.6,2.3-1l2,2c1.1,1.1,3,1.1,4.1,0
				c1.1-1.1,1.1-3,0-4.1l-2-2c0.4-0.7,0.7-1.5,1-2.3h2.8c1.6,0,2.9-1.3,2.9-2.9C168.4,100.1,167.1,98.8,165.4,98.8z M152.3,106.7
				c-2.7,0-5-2.2-5-5s2.2-5,5-5c2.7,0,5,2.2,5,5C157.3,104.5,155.1,106.7,152.3,106.7z"/>
			<path class="st0" d="M92.6,76.8c12.8,0,23.1-10.3,23.1-23.1s-10.3-23.1-23.1-23.1S69.5,40.9,69.5,53.7
				C69.5,66.4,79.8,76.7,92.6,76.8z M92.6,36.4c9.5,0,17.3,7.7,17.3,17.3c0,9.5-7.7,17.3-17.3,17.3s-17.3-7.7-17.3-17.3
				C75.3,44.1,83.1,36.4,92.6,36.4z"/>
		</g>
	</g>
</g>
</svg>
