<?xml version="1.0" encoding="utf-8"?>
<!-- Generator: Adobe Illustrator 21.0.2, SVG Export Plug-In . SVG Version: 6.00 Build 0)  -->
<svg version="1.1" id="Layer_1" xmlns="http://www.w3.org/2000/svg" xmlns:xlink="http://www.w3.org/1999/xlink" x="0px" y="0px"
	 viewBox="0 0 181.4 181.4" style="enable-background:new 0 0 181.4 181.4;" xml:space="preserve">
<style type="text/css">
	.st0{fill:#1CC1DE;}
</style>
<g transform="translate(0 -1)">
	<path class="st0" d="M174.1,157.2h-2.9V96.7c0-4.8-3.9-8.6-8.6-8.6h-31.7v-1.4c0-2.4,1.9-4.3,4.3-4.3h23c5.6,0,10.1-4.5,10.1-10.1
		s-4.5-10.1-10.1-10.1h-8.6c-2.4,0-4.3-1.9-4.3-4.3c0-2.4,1.9-4.3,4.3-4.3H164c5.6,0,10.1-4.5,10.1-10.1s-4.5-10.1-10.1-10.1H121
		c-2.6-6.2-6.8-11.6-12.1-15.6C96.3,8.1,84.6,4,70.8,4.7c-7.2,0.5-14.3,1.5-21.3,3c-2.6,0.5-5.2,1.2-7.7,2
		c-5.5,1.7-10.5,4.7-14.6,8.7c-4,4.2-7,9.1-9,14.5c-0.9,2.5-1.6,5.1-2.1,7.7L16,41c-0.5,1.7-1.1,3.3-1.8,4.9c-0.5,1-0.9,2-1.3,3.1
		c-0.5,1.3-0.7,2.6-0.6,4c0.5,2.1,1.7,4,3.4,5.2c0.6,0.6,1.6,1.4,1.6,1.7c-0.1,0.2-0.2,0.4-0.3,0.6c-2.6,5.4-5.8,10.6-9.5,15.4
		l-0.2,0.2C5.4,78,4.4,80.4,4.3,83c0.5,1.9,1.7,3.6,3.4,4.6c0.8,0.5,1.6,1,2.4,1.4c0.8,0.4,1.6,0.8,2.3,1.4c0.1,0.6,0.1,1.2-0.2,1.7
		c-0.3,0.7-0.6,1.2-0.9,1.7c-0.8,1.4-2.5,4.3,0,6.3c0.4,0.4,1,0.9,1.7,1.3c-0.5,0.9-0.6,2-0.5,3c0.1,1,0.7,2,1.6,2.6
		c0.5,0.4,1.1,0.7,1.6,1c1.2,0.7,1.5,0.9,1.7,1.3c0.1,0.8,0,1.5-0.2,2.3c-0.1,0.6-0.3,1.2-0.3,1.8c-0.2,2.1,0,4.2,0.8,6.2
		c1.1,3.8,4.6,6.3,8.5,6.4c0.6,0,1.3-0.1,1.9-0.2c6.2-1.5,12.2-3.3,18.2-5.4c4.6,2.9,7.6,11.2,8.4,14.3c0.3,1.3,1.5,2.2,2.8,2.2h0
		l16.2,0v20.2h-2.9c-1.6,0-2.9,1.3-2.9,2.9v5.8c0,6.4,5.2,11.5,11.5,11.5h86.4c6.4,0,11.5-5.2,11.5-11.5v-5.8
		C177,158.5,175.7,157.2,174.1,157.2z M162.6,93.9c1.6,0,2.9,1.3,2.9,2.9v60.5h-28.8c-1.6,0-2.9,1.3-2.9,2.9h-23
		c0-1.6-1.3-2.9-2.9-2.9H79.1V96.7c0-1.6,1.3-2.9,2.9-2.9h20.1l0,0l0,0H162.6z M124.5,55.7c0.1-5.6-0.5-11.1-1.8-16.5H164
		c2.4,0,4.3,1.9,4.3,4.3s-1.9,4.3-4.3,4.3h-14.4c-5.6,0-10.1,4.5-10.1,10.1S144.1,68,149.7,68h8.6c2.4,0,4.3,1.9,4.3,4.3
		s-1.9,4.3-4.3,4.3h-23c-5.6,0-10.1,4.5-10.1,10.1v1.4h-15.6c1.6-3,3.4-5.8,5.5-8.4c1.4-1.8,2.7-3.7,4-5.6
		C122.6,68.6,124.5,62.2,124.5,55.7z M45.5,14.7c1.6-0.5,3.3-0.9,5.1-1.3c6.8-1.5,13.6-2.5,20.5-2.9c12.3-0.6,22.8,3.1,34.2,11.9
		c3.9,2.9,7.1,6.7,9.4,11.1h-12.8c-1.5-8.9-9.5-15.1-18.5-14.3c-8.9,0.8-15.8,8.2-15.8,17.2s6.9,16.5,15.8,17.2
		c8.9,0.8,17-5.5,18.5-14.3h14.9c1.4,5.4,2.1,10.9,2,16.5c0,5.4-1.6,10.7-4.6,15.3c-1.1,1.8-2.4,3.5-3.8,5.3
		c-2.6,3.2-4.8,6.7-6.5,10.3c0,0.1-0.1,0.2-0.1,0.3C97,69.2,78.1,60.1,64.1,53.4c-1.7-0.8-3.3-1.6-4.9-2.4
		C46,44.4,45.4,21.4,45.5,14.7z M84.9,39.2H96c-1.4,5.6-6.8,9.3-12.6,8.5c-5.8-0.7-10.1-5.6-10.1-11.4s4.3-10.7,10.1-11.4
		c5.8-0.7,11.2,2.9,12.6,8.5H84.9c-1.6,0-2.9,1.3-2.9,2.9S83.3,39.2,84.9,39.2z M59.4,131.3c-1.4-4.8-3.8-9.2-7-13
		c1.9-0.7,3.4-1.2,4.1-1.4c3.6-1,7-2.7,10.1-4.9c1.2-1,1.4-2.8,0.4-4c-1-1.2-2.8-1.4-4-0.4c-2.5,1.8-5.2,3.1-8.2,3.9
		c-0.8,0.2-2.5,0.8-4.7,1.6l-4.7,1.6l0,0l0,0c-6.2,2.2-12.4,4.1-18.8,5.6c-1.7,0.3-3.4-0.8-3.8-2.5c-0.4-1.1-0.6-2.3-0.5-3.5
		c0.1-0.4,0.2-0.9,0.3-1.3c0.5-1.6,0.5-3.3,0.2-5c-0.6-2.1-2.2-3.9-4.3-4.8c0.1-0.2,0.3-0.4,0.4-0.7c0.5-0.6,0.7-1.4,0.6-2.2
		c-0.1-0.8-0.5-1.5-1.1-1.9c-0.6-0.4-1.4-1.1-2.2-1.7l0.1-0.1c0.3-0.6,0.7-1.3,1.1-2.1c0.8-1.7,1-3.5,0.6-5.3
		c-0.6-3-3.3-4.4-5.3-5.4c-0.6-0.3-1.2-0.6-1.8-1c-0.2-0.2-0.6-0.5-0.9-0.7c0.5-0.8,1-1.6,1.6-2.3l0.2-0.2c4-5.1,7.4-10.5,10.1-16.3
		c0.6-1,0.9-2.1,0.9-3.3c-0.2-2.4-1.5-4.6-3.4-6c-0.6-0.6-1.5-1.4-1.6-1.8c0-0.4,0.1-0.8,0.3-1.2c0.4-0.9,0.8-1.8,1.2-2.7
		c0.9-1.9,1.7-3.9,2.2-5.9l0.1-0.3c0.5-2.4,1.1-4.7,1.9-7c1.7-4.7,4.3-8.9,7.7-12.6c2.4-2.4,5.3-4.4,8.4-5.7
		c0.1,9.6,1.9,31.9,16.9,39.4c1.6,0.8,3.2,1.6,5,2.4c13.6,6.5,30.3,14.6,36.5,29.6H82c-4.8,0-8.6,3.9-8.6,8.6v34.5L59.4,131.3z
		 M171.2,165.8c0,3.2-2.6,5.8-5.8,5.8H79.1c-3.2,0-5.8-2.6-5.8-5.8V163H105c0,1.6,1.3,2.9,2.9,2.9h28.8c1.6,0,2.9-1.3,2.9-2.9h31.7
		V165.8z"/>
	<path class="st0" d="M91.7,118.4c-0.8,1.1-0.7,2.7,0.3,3.7l3.6,3.6c-0.9,1.7-1.7,3.5-2.2,5.4h-5.1c-1.4,0-2.6,1-2.8,2.4
		c-0.4,2.1-0.6,4.3-0.6,6.5c0,1.5,0.1,3,0.3,4.5c-0.2,0.4-0.3,0.8-0.3,1.2c0,1.6,1.3,2.9,2.9,2.9h47.8l0,0l0,0h21.3
		c1.6,0,2.9-1.3,2.9-2.9c0-0.4-0.1-0.9-0.3-1.2c0.2-1.5,0.3-3,0.3-4.5c0-2.2-0.2-4.3-0.6-6.5c-0.2-1.4-1.4-2.4-2.8-2.4h-5.1
		c-0.6-1.9-1.3-3.7-2.2-5.4l3.6-3.6c1-1,1.1-2.5,0.3-3.7c-2.5-3.6-5.6-6.6-9.1-9.1c-1.1-0.8-2.7-0.7-3.7,0.3l-3.6,3.6
		c-1.7-0.9-3.5-1.7-5.4-2.2v-5.1c0-1.4-1-2.6-2.4-2.8c-4.3-0.7-8.7-0.7-12.9,0c-1.4,0.2-2.4,1.4-2.4,2.8v5.1
		c-1.9,0.6-3.7,1.3-5.4,2.2l-3.6-3.6c-1-1-2.5-1.1-3.7-0.3C97.3,111.8,94.2,114.9,91.7,118.4z M133.4,142.8h-22.2
		c-0.3-0.9-0.4-1.9-0.4-2.9c0-6.4,5.2-11.5,11.5-11.5c6.4,0,11.5,5.2,11.5,11.5C133.8,140.9,133.7,141.9,133.4,142.8z M105.6,118.8
		c1,1,2.5,1.1,3.6,0.4c2.4-1.5,5-2.6,7.8-3.2c1.3-0.3,2.3-1.5,2.3-2.8v-4.8c2-0.2,4.1-0.2,6.2,0v4.8c0,1.4,0.9,2.5,2.3,2.8
		c2.8,0.6,5.4,1.7,7.8,3.2c1.1,0.7,2.6,0.6,3.6-0.4l3.4-3.4c1.6,1.3,3.1,2.8,4.4,4.4l-3.4,3.4c-1,1-1.1,2.5-0.4,3.6
		c1.5,2.4,2.6,5,3.2,7.8c0.3,1.3,1.5,2.3,2.8,2.3h4.8c0.1,1,0.1,2,0.1,3.1c0,1-0.1,1.9-0.1,2.9h-14.5c0.2-1,0.3-1.9,0.3-2.9
		c0-9.5-7.7-17.3-17.3-17.3s-17.3,7.7-17.3,17.3c0,1,0.1,1.9,0.3,2.9H90.8c-0.1-1-0.1-1.9-0.1-2.9c0-1,0-2.1,0.1-3.1h4.8
		c1.4,0,2.5-0.9,2.8-2.3c0.6-2.8,1.7-5.4,3.2-7.8c0.7-1.1,0.6-2.6-0.4-3.6l-3.4-3.4c1.3-1.6,2.8-3.1,4.4-4.4L105.6,118.8z"/>
</g>
</svg>
